HIERARCHY
ROOT Hips
{
  OFFSET 0 89.5177 0.535
  CHANNELS 6 Xposition Yposition Zposition Zrotation Xrotation Yrotation
  JOINT Spine
  {
    OFFSET 12.0259 -0.162855 1.69034e-005
    CHANNELS 3 Zrotation Xrotation Yrotation
    JOINT Spine1
    {
      OFFSET 15.3169 -0.0121922 0
      CHANNELS 3 Zrotation Xrotation Yrotation
      JOINT Spine2
      {
        OFFSET 15.3176 -0.0121908 0
        CHANNELS 3 Zrotation Xrotation Yrotation
        JOINT Neck
        {
          OFFSET 19.9142 1.56338 0
          CHANNELS 3 Zrotation Xrotation Yrotation
          JOINT Head
          {
            OFFSET 6.92651 0 0
            CHANNELS 3 Zrotation Xrotation Yrotation
            End Site
            {
              OFFSET 20.7666 0 0
            }
          }
          JOINT LeftShoulder
          {
            OFFSET -6.20654 0.708824 7.28219
            CHANNELS 3 Zrotation Xrotation Yrotation
            JOINT LeftArm
            {
              OFFSET 14.108 0 -1.52588e-005
              CHANNELS 3 Zrotation Xrotation Yrotation
              JOINT LeftForeArm
              {
                OFFSET 28.5802 0 0
                CHANNELS 3 Zrotation Xrotation Yrotation
                JOINT LeftHand
                {
                  OFFSET 27.092 0 0
                  CHANNELS 3 Zrotation Xrotation Yrotation
                  End Site
                  {
                    OFFSET 9.55928 -0.186424 0.145352
                  }
                }
              }
            }
          }
          JOINT RightShoulder
          {
            OFFSET -6.20654 0.708866 -7.28218
            CHANNELS 3 Zrotation Xrotation Yrotation
            JOINT RightArm
            {
              OFFSET 14.108 0 1.52588e-005
              CHANNELS 3 Zrotation Xrotation Yrotation
              JOINT RightForeArm
              {
                OFFSET 28.5802 0 0
                CHANNELS 3 Zrotation Xrotation Yrotation
                JOINT RightHand
                {
                  OFFSET 27.092 0 0
                  CHANNELS 3 Zrotation Xrotation Yrotation
                  End Site
                  {
                    OFFSET 9.55929 -0.186417 -0.145354
                  }
                }
              }
            }
          }
        }
      }
    }
  }
  JOINT LeftUpLeg
  {
    OFFSET 0.005 -0.535 8.837
    CHANNELS 3 Zrotation Xrotation Yrotation
    JOINT LeftLeg
    {
      OFFSET 39.9035 0 0
      CHANNELS 3 Zrotation Xrotation Yrotation
      JOINT LeftFoot
      {
        OFFSET 39.6689 0 0
        CHANNELS 3 Zrotation Xrotation Yrotation
        JOINT LeftToe
        {
          OFFSET 10.1624 13.6296 0
          CHANNELS 3 Zrotation Xrotation Yrotation
          End Site
          {
            OFFSET 8.38147 0 0
          }
        }
      }
    }
  }
  JOINT RightUpLeg
  {
    OFFSET 0.005 -0.535 -8.837
    CHANNELS 3 Zrotation Xrotation Yrotation
    JOINT RightLeg
    {
      OFFSET 39.9035 0 0
      CHANNELS 3 Zrotation Xrotation Yrotation
      JOINT RightFoot
      {
        OFFSET 39.6689 0 0
        CHANNELS 3 Zrotation Xrotation Yrotation
        JOINT RightToe
        {
          OFFSET 10.1624 13.6296 0
          CHANNELS 3 Zrotation Xrotation Yrotation
          End Site
          {
            OFFSET 8.38147 0 0
          }
        }
      }
    }
  }
}
MOTION
Frames:	12
Frame Time:	0.0333333
257.837 86.1466 175.757 -109.511 -3.26737 -178.306 3.91461 -0.410301 -0.341438 7.82703 -0.842465 -0.653971 7.82703 -0.842465 -0.653981 -8.30261e-012 -9.0191e-006 -5.27751e-005 -6.75464 19.5486 -12.6658 -176.481 -15.3283 -76.9048 -57.4599 -24.1019 60.9164 -65.6728 -1.59028e-015 -0 -74.8781 -63.7478 -84.3067 -177.704 11.3247 78.4612 -45.6009 34.9872 -36.3101 -55.6432 -9.54166e-015 -4.77083e-015 -83.0857 77.0493 86.3913 -51.7913 14.3173 -168.34 -46.3108 3.18055e-015 8.94531e-016 11.4897 7.85651 -11.6581 90 -4.77083e-015 3.18055e-015 -41.0641 -15.0921 164.639 -39.8363 -3.18056e-015 2.82026e-015 16.5755 -8.41385 8.03656 90 3.97569e-016 1.59028e-015 
260.398 85.8011 173.473 -108.87 -1.37945 -177.717 3.79504 -0.600086 -0.298672 7.58754 -1.21813 -0.556891 7.58754 -1.21814 -0.5569 -8.30487e-012 -9.0191e-006 -5.27751e-005 -5.78124 20.782 -13.5953 -176.865 -14.5271 -77.6814 -61.3281 -19.9211 61.9182 -62.1636 -7.95139e-015 -6.36111e-015 -71.9251 -65.6792 -80.663 -177.624 11.22 77.9617 -43.1275 32.1511 -35.549 -47.0322 -9.54166e-015 -5.56597e-015 -75.3503 79.3579 78.092 -50.5923 11.4063 -167.691 -35.7365 -3.18055e-015 3.97569e-015 9.70818 7.92664 -11.8539 90 -3.97569e-016 -3.18055e-015 -38.0777 -10.4324 164.597 -39.5636 -3.18056e-015 -7.95139e-016 17.217 -6.88073 8.15577 90 0 -1.59028e-015 
263.152 85.149 171.024 -108.384 0.0747367 -177.64 3.67657 -1.09922 -0.19446 7.35144 -2.20816 -0.317968 7.35144 -2.20816 -0.317978 -8.30403e-012 -9.0191e-006 -5.27751e-005 -4.52794 23.2567 -14.8615 -177.085 -13.631 -77.8082 -64.8131 -16.0423 63.5904 -59.2339 -1.59028e-015 -3.18055e-015 -65.5171 -68.4057 -73.1702 -177.698 10.8075 77.9028 -41.1113 26.7995 -33.7211 -38.6866 3.18055e-015 1.11319e-014 -65.0991 81.2699 67.3672 -49.0707 8.49687 -166.472 -25.6745 0 -0 6.57688 8.2425 -12.404 90 -9.93923e-017 -0 -35.0812 -6.67916 164.398 -39.6913 1.59028e-015 7.95139e-016 19.9912 -4.69056 7.91917 90 -3.97569e-016 -0 
266.156 84.2952 168.247 -107.837 1.89358 -177.306 3.62889 -1.65569 -0.203741 7.25646 -3.32048 -0.302248 7.25646 -3.32048 -0.302258 -8.30808e-012 -9.0191e-006 -5.27751e-005 -3.98883 26.3916 -16.1906 -177.064 -12.8808 -77.0453 -67.7448 -12.3701 65.2004 -57.6807 3.18055e-015 3.18055e-015 -57.9897 -71.4426 -64.6197 -177.833 10.2177 77.9563 -37.8971 17.1799 -31.4515 -34.4447 3.18055e-015 -0 -53.978 83.3985 55.8187 -47.2651 7.27411 -165.052 -18.3011 0 -3.18055e-015 6.3973 8.97103 -13.6322 90 0 -0 -31.8899 -3.87997 163.55 -39.2951 -3.18056e-015 1.59028e-015 23.3155 -3.40133 6.54713 90 7.95139e-016 -0 
269.336 83.4305 165.265 -107.25 5.05939 -176.596 3.62644 -2.03531 -0.325566 7.24818 -4.08664 -0.521939 7.24818 -4.08664 -0.521948 -8.31364e-012 -9.0191e-006 -5.27751e-005 -4.31692 30.2903 -17.6977 -176.932 -12.3073 -75.8851 -69.924 -8.71997 66.8516 -57.9151 1.59028e-015 3.18055e-015 -42.5543 -74.2103 -47.8688 -177.936 9.89918 78.1617 -33.0763 5.66317 -30.1115 -32.549 6.36111e-015 -6.36111e-015 -34.4228 85.5608 35.8138 -45.6779 8.95 -163.45 -15.4664 7.95139e-016 4.77083e-015 7.92758 8.51992 -13.0454 90 -3.97569e-016 -0 -29.3893 -0.347136 162.355 -39.5475 0 -0 25.2406 -2.69513 6.07001 90 1.59028e-015 -1.59028e-015 
272.584 82.6764 162.38 -107.116 9.25112 -175.988 3.60557 -2.31183 -0.49014 7.20011 -4.64938 -0.834571 7.20011 -4.64938 -0.83458 -8.30788e-012 -9.0191e-006 -5.27751e-005 -4.71179 34.9512 -18.883 -176.707 -12.3086 -74.895 -72.6763 -5.18306 67.8933 -60.3246 -1.59028e-015 3.18055e-015 -31.0905 -75.4113 -35.6756 -177.939 10.2036 78.518 -28.1752 -5.3263 -30.6693 -31.5762 -9.54166e-015 6.36111e-015 -8.40296 86.4692 9.47055 -47.6688 13.4865 -160.665 -20.4137 0 -1.59028e-015 2.70061 8.89235 -13.0712 90 1.55301e-018 -0 -27.4214 4.83027 162.017 -40.2537 -3.18056e-015 1.59028e-015 26.244 -0.951138 4.18511 90 0 3.18055e-015 
275.546 82.2121 159.619 -106.821 13.1438 -175.316 3.71097 -2.72559 -0.700173 7.40107 -5.49018 -1.22401 7.40107 -5.49018 -1.22402 -8.31265e-012 -9.0191e-006 -5.27751e-005 -5.17057 40.2434 -19.9666 -176.601 -12.2616 -74.3752 -74.5462 -3.21596 68.7053 -63.2078 1.98785e-015 -0 -26.2232 -76.3833 -30.5106 -177.804 10.8312 78.4687 -24.8781 -16.9733 -32.3498 -31.8148 0 -9.54166e-015 17.2149 86.7024 -16.3951 -51.285 16.6366 -158.31 -29.9918 -3.18055e-015 -0 2.48669 10.8213 -13.5117 90 -3.97569e-016 9.93923e-017 -25.7021 11.9897 162.428 -42.577 0 -1.59028e-015 26.2456 3.24598 -1.14047 90 3.18055e-015 -4.77083e-015 
278.001 82.0937 156.893 -107.185 17.4161 -172.016 3.66497 -3.00069 -1.53336 7.26354 -6.09194 -2.87717 7.26354 -6.09194 -2.87718 -8.3051e-012 -9.0191e-006 -5.27751e-005 -4.96986 44.6375 -20.2395 -176.613 -12.5279 -74.7402 -77.6348 -2.35684 67.7769 -64.9601 -2.18663e-015 1.98785e-016 -27.6862 -76.3112 -32.0503 -177.72 11.1139 78.3312 -23.4091 -29.2742 -37.6716 -32.7556 0 -0 22.3472 87.0479 -21.556 -51.2108 19.5017 -159.008 -35.0258 0 -1.59028e-015 2.8905 9.01315 -13.4814 90 -7.95139e-016 9.93923e-017 -27.1694 19.5419 161.719 -48.2322 -1.59028e-015 -1.59028e-015 24.0953 8.76916 -8.26285 90 -6.36111e-015 -0 
281.041 82.9071 155.33 -104.462 20.0134 -174.858 4.35429 -3.22918 -1.25931 8.65757 -6.54365 -2.27439 8.65757 -6.54365 -2.2744 -8.31146e-012 -9.0191e-006 -5.27751e-005 -2.95072 48.0629 -22.1182 -176.302 -13.0445 -74.0212 -81.5329 -1.37067 65.069 -66.1672 -3.57812e-015 -1.59028e-015 -32.7093 -75.7615 -37.3611 -177.749 10.8878 78.2471 -26.1577 -41.2823 -48.3468 -33.6297 -7.95139e-016 3.18055e-015 0.529141 87.5282 0.449663 -47.3972 18.2577 -158.187 -37.3557 -7.95139e-016 1.59028e-015 5.66247 7.09132 -10.6405 90 -3.97569e-016 -9.93923e-017 -25.8984 20.6332 166.22 -49.9405 -1.59028e-015 1.59028e-015 18.5489 15.3789 -17.4784 90 0 -3.18055e-015 
283.028 84.017 154.022 -103.918 22.9714 -175.665 4.55526 -3.15906 -1.29837 9.05888 -6.41024 -2.34628 9.05888 -6.41024 -2.34629 -8.30748e-012 -9.0191e-006 -5.27751e-005 0.677824 51.5872 -25.4018 -176.078 -13.7431 -73.9038 -84.661 -1.51931 63.2439 -65.7631 3.97569e-016 3.18055e-015 -32.8739 -75.1829 -37.5644 -177.591 10.5447 77.055 -42.6658 -52.3389 -70.9428 -35.3329 -4.77083e-015 7.95139e-016 -23.0373 87.5084 24.1912 -45.0813 19.8401 -157.533 -36.8641 -1.59028e-015 3.18055e-015 6.58715 5.99569 -9.0226 90 1.98785e-016 -0 -27.7636 21.0422 168.902 -51.8448 -3.18056e-015 1.59028e-015 14.2958 13.4363 -13.5445 90 0 -0 
284.555 85.4326 153.127 -103.443 24.1149 -176.764 4.75804 -3.12764 -1.23563 9.46919 -6.34603 -2.21168 9.46918 -6.34603 -2.21169 -8.30271e-012 -9.0191e-006 -5.27751e-005 3.9136 54.3818 -28.0441 -176.06 -14.0698 -74.1827 -86.9546 -2.00656 62.3601 -65.3502 -1.98785e-015 -7.95139e-015 -33.0803 -75.9988 -37.7374 -177.375 9.76104 74.8711 -70.9798 -52.5329 -104.271 -40.0531 0 3.18055e-015 -43.7743 87.7403 45.0404 -42.1459 21.1241 -157.618 -33.6437 -7.95139e-016 7.95139e-016 6.01642 6.0124 -9.03048 90 -3.97569e-016 -5.96354e-016 -29.6669 17.8618 171.088 -53.2207 3.18056e-015 -1.59028e-015 9.80919 10.6043 -8.99615 90 -3.18055e-015 -0 
285.785 86.8827 152.298 -103.244 24.1913 -177.995 4.82607 -3.04858 -1.06671 9.61541 -6.17529 -1.87633 9.61541 -6.17529 -1.87634 -8.31066e-012 -9.0191e-006 -5.27751e-005 6.38379 55.9114 -29.341 -175.927 -14.2738 -73.889 -88.6427 -1.65517 61.9957 -66.1868 -3.97569e-016 -3.18055e-015 -31.2492 -77.1452 -35.7435 -176.918 10.0529 72.8584 -87.8439 -42.1291 -124.128 -48.6415 0 9.54166e-015 -60.8015 89.9333 61.7965 -38.6162 21.1268 -158.734 -28.8173 0 1.59028e-015 4.52561 5.71414 -8.57124 90 0 -3.97569e-016 -31.0191 12.2472 172.39 -53.3418 0 -1.59028e-015 4.99883 9.24339 -7.10725 90 1.59028e-015 6.36111e-015 
